<svg xmlns="http://www.w3.org/2000/svg" width="26" height="26" viewBox="0 0 26 26">
    <g fill="none" fill-rule="evenodd">
        <path d="M-1-1h28v28H-1z"/>
        <path fill="#010E61" fill-rule="nonzero" d="M24.55 4.833H20v-3.5A1.17 1.17 0 0 0 18.833.167a1.17 1.17 0 0 0-1.166 1.166v3.5h-4.55c-.689 0-1.225.595-1.167 1.284l.14 1.411C16.383 8.52 20 11.565 20 16.5l.023 9.333h1.984c.98 0 1.785-.758 1.901-1.715l1.797-18.001a1.162 1.162 0 0 0-1.155-1.284zM16.5 23.5H1.333a1.17 1.17 0 0 0-1.166 1.167 1.17 1.17 0 0 0 1.166 1.166H16.5a1.17 1.17 0 0 0 1.167-1.166A1.17 1.17 0 0 0 16.5 23.5zm-15.05-7h14.933c.724 0 1.295-.653 1.155-1.353-.758-3.769-4.69-5.659-8.621-5.659-3.932 0-7.852 1.89-8.622 5.659-.14.7.443 1.353 1.155 1.353zm15.05 2.333H1.333A1.17 1.17 0 0 0 .167 20a1.17 1.17 0 0 0 1.166 1.167H16.5A1.17 1.17 0 0 0 17.667 20a1.17 1.17 0 0 0-1.167-1.167z"/>
    </g>
</svg>
