<svg xmlns="http://www.w3.org/2000/svg" width="20" height="23" viewBox="0 0 20 23">
    <g fill="none" fill-rule="evenodd">
        <path d="M-4-2h28v28H-4z"/>
        <path fill="#010E61" fill-rule="nonzero" d="M.667 16.667c0 1.026.455 1.948 1.166 2.59v1.493c0 .968.782 1.75 1.75 1.75.969 0 1.75-.782 1.75-1.75v-.583h9.334v.583c0 .957.781 1.75 1.75 1.75.956 0 1.75-.782 1.75-1.75v-1.493a3.484 3.484 0 0 0 1.166-2.59V5C19.333.917 15.157.333 10 .333S.667.917.667 5v11.667zm4.083 1.166c-.968 0-1.75-.781-1.75-1.75 0-.968.782-1.75 1.75-1.75s1.75.782 1.75 1.75c0 .969-.782 1.75-1.75 1.75zm10.5 0c-.968 0-1.75-.781-1.75-1.75 0-.968.782-1.75 1.75-1.75s1.75.782 1.75 1.75c0 .969-.782 1.75-1.75 1.75zm1.75-7H3V5h14v5.833z"/>
    </g>
</svg>
