<svg xmlns="http://www.w3.org/2000/svg" xmlns:xlink="http://www.w3.org/1999/xlink" width="32" height="32" viewBox="0 0 32 32">
    <defs>
        <filter id="a" width="222.7%" height="217.4%" x="-61.4%" y="-58.7%" filterUnits="objectBoundingBox">
            <feOffset dx="2" dy="1" in="SourceAlpha" result="shadowOffsetOuter1"/>
            <feGaussianBlur in="shadowOffsetOuter1" result="shadowBlurOuter1" stdDeviation="2.5"/>
            <feColorMatrix in="shadowBlurOuter1" result="shadowMatrixOuter1" values="0 0 0 0 1 0 0 0 0 1 0 0 0 0 1 0 0 0 0.5 0"/>
            <feMerge>
                <feMergeNode in="shadowMatrixOuter1"/>
                <feMergeNode in="SourceGraphic"/>
            </feMerge>
        </filter>
        <ellipse id="b" cx="11" cy="11" rx="11" ry="10.823"/>
    </defs>
    <g fill="none" fill-rule="evenodd" filter="url(#a)" transform="translate(3 4)">
        <g transform="translate(0 .18)">
            <mask id="c" fill="#fff">
                <use xlink:href="#b"/>
            </mask>
            <use fill="#244DAE" xlink:href="#b"/>
            <path fill="#03B454" d="M13.705.71c.721 4.258.48 6.623-.721 7.096C11.78 8.28 11.3 9.344 11.54 11c-.48.946-1.202 1.42-2.164 1.42-1.443 0-4.328 1.774-4.328 2.128 0 .355 0 2.13-.721 2.13H2.164c-.48 0-2.404-1.065-5.77-3.194C-2.405 6.15-1.203 1.892 0 .71c1.803-1.775 8.656-3.194 9.377-3.194.48 0 1.924 1.065 4.328 3.194z" mask="url(#c)"/>
        </g>
        <path fill="#03B454" d="M20.705 10.4c-1.705 1.136-2.131 2.272-1.279 3.408 1.279 1.704 2.392-2.97 2.557-3.408.11-.293-.316-.293-1.278 0z"/>
        <ellipse cx="8.5" cy="9.18" fill="#101010" rx="1.5" ry="2"/>
        <ellipse cx="17.5" cy="9.18" fill="#101010" rx="1.5" ry="2"/>
        <path stroke="#101010" stroke-linecap="round" stroke-linejoin="round" stroke-width="2" d="M12 15.18c0 1.25.75 2 1.5 2s1.5-.75 1.5-2"/>
    </g>
</svg>
